<svg width="100" height="100" viewBox="0 0 100 100" fill="none" xmlns="http://www.w3.org/2000/svg">
<path d="M75.0009 6.69946C82.5423 11.0537 88.8158 17.3021 93.2002 24.826C97.5847 32.3498 99.928 40.8883 99.9984 49.5962C100.069 58.304 97.8636 66.8792 93.6013 74.4729C89.3389 82.0666 83.1672 88.4155 75.6971 92.891C68.227 97.3666 59.7176 99.8136 51.0111 99.9898C42.3047 100.166 33.7032 98.0653 26.0581 93.8957C18.413 89.726 11.9895 83.6321 7.42342 76.217C2.85735 68.802 0.30705 60.323 0.0250009 51.6195L0 49.9995L0.0250009 48.3795C0.30502 39.7444 2.81777 31.3293 7.31829 23.9544C11.8188 16.5796 18.1535 10.4967 25.7048 6.29887C33.2561 2.10103 41.7662 -0.0685539 50.4057 0.00165123C59.0451 0.0718564 67.5189 2.37945 75.0009 6.69946ZM50.0006 19.9995C48.7759 19.9996 47.5939 20.4492 46.6787 21.263C45.7635 22.0768 45.1788 23.1982 45.0356 24.4145L45.0006 24.9995V49.9995L45.0456 50.6544C45.1596 51.5219 45.4992 52.3443 46.0306 53.0395L46.4656 53.5395L61.4658 68.5394L61.9358 68.9494C62.8126 69.6298 63.8909 69.999 65.0008 69.999C66.1107 69.999 67.189 69.6298 68.0658 68.9494L68.5358 68.5344L68.9508 68.0644C69.6312 67.1876 70.0004 66.1093 70.0004 64.9994C70.0004 63.8896 69.6312 62.8113 68.9508 61.9344L68.5358 61.4645L55.0007 47.9245V24.9995L54.9657 24.4145C54.8224 23.1982 54.2377 22.0768 53.3225 21.263C52.4073 20.4492 51.2253 19.9996 50.0006 19.9995Z" fill="#033133"/>
</svg>
