<svg width="100" height="100" viewBox="0 0 100 100" fill="none" xmlns="http://www.w3.org/2000/svg">
<circle cx="50" cy="50" r="50" fill="#033133"/>
<path d="M50 31.125V42.625M50 31.125V28.25C50 26.725 49.3854 25.2625 48.2915 24.1841C47.1976 23.1058 45.7139 22.5 44.1668 22.5H38.3337V25.375C38.3337 26.9 38.9482 28.3625 40.0422 29.4409C41.1361 30.5192 42.6198 31.125 44.1668 31.125H50ZM50 31.125C50 29.6 50.6146 28.1375 51.7085 27.0591C52.8024 25.9808 54.2861 25.375 55.8332 25.375H61.6663V28.25C61.6663 29.775 61.0518 31.2375 59.9578 32.3159C58.8639 33.3942 57.3802 34 55.8332 34H50V31.125ZM64.0433 80H35.9567C35.3512 80.0001 34.7564 79.8434 34.2317 79.5456C33.707 79.2478 33.2709 78.8194 32.967 78.3032C32.663 77.7871 32.502 77.2012 32.5 76.6044C32.498 76.0076 32.6551 75.4208 32.9555 74.9026L44.1668 55.5625V42.625H55.8332V55.5625L67.0445 74.9026C67.345 75.421 67.5021 76.0081 67.5 76.6052C67.4978 77.2022 67.3366 77.7882 67.0323 78.3045C66.7281 78.8207 66.2915 79.2491 65.7664 79.5467C65.2413 79.8443 64.6461 80.0006 64.0404 80M41.2503 42.625H58.7497" stroke="white" stroke-width="4" stroke-linecap="round" stroke-linejoin="round"/>
</svg>
