<svg width="62" height="125" viewBox="0 0 62 125" fill="none" xmlns="http://www.w3.org/2000/svg">
<path d="M29.3232 99.6206C30.4923 100.319 30.96 101.716 30.2585 102.88C29.5571 104.045 28.1541 104.51 26.985 103.812L1.26486 89.8414C0.0957578 89.1428 -0.371881 87.7458 0.329579 86.5816C1.03104 85.4174 2.43396 84.9517 3.60305 85.6503L29.3232 99.6206Z" fill="#90C5C8"/>
<path d="M51.5361 55.1484V50.4916C59.9536 50.4916 64.1624 63.5306 60.8889 77.9666C57.6154 91.9369 41.248 104.045 28.1541 104.045V99.3877C39.1437 99.3877 53.6405 88.6772 56.2125 76.8024C59.0183 64.9276 55.7449 55.1484 51.5361 55.1484ZM2.43396 120.343H53.8743C55.2772 120.343 56.2125 121.275 56.2125 122.672C56.2125 124.069 55.2772 125 53.8743 125H2.43396C1.03104 125 0.0957599 124.069 0.0957599 122.672C0.0957599 121.275 1.03104 120.343 2.43396 120.343Z" fill="#90C5C8"/>
<path d="M51.5361 1.82831C58.3169 5.78657 60.6551 14.1688 56.6801 20.9211L33.2982 61.2022L8.98091 47.2319L32.3629 6.95076C36.104 0.198437 44.7553 -1.89711 51.5361 1.82831Z" fill="#2D6F73"/>
<path d="M5.2398 50.4916C3.83688 49.5603 3.13542 47.9304 3.60306 46.999C4.0707 46.0677 5.94126 45.602 7.57799 46.5333L34.4673 62.1335C35.8702 63.0649 36.5716 64.6948 36.104 65.6261C35.4025 66.7903 33.7658 67.0232 32.1291 66.0918L5.2398 50.4916Z" fill="#90C5C8"/>
<path d="M8.51327 52.5872L28.8556 64.2291L25.3483 70.2829C24.6468 71.4471 23.2439 71.6799 22.0748 71.2143L5.94125 61.9007C4.77215 61.2022 4.53834 59.8052 5.00598 58.641L8.51327 52.5872Z" fill="#2D6F73"/>
<path d="M44.5215 52.82C44.5215 54.6726 45.2606 56.4493 46.576 57.7592C47.8915 59.0692 49.6757 59.8052 51.5361 59.8052C53.3965 59.8052 55.1807 59.0692 56.4962 57.7592C57.8117 56.4493 58.5507 54.6726 58.5507 52.82C58.5507 50.9674 57.8117 49.1907 56.4962 47.8807C55.1807 46.5708 53.3965 45.8348 51.5361 45.8348C49.6757 45.8348 47.8915 46.5708 46.576 47.8807C45.2606 49.1907 44.5215 50.9674 44.5215 52.82Z" fill="#2D6F73"/>
<path d="M25.8159 108.701V122.672H30.4923V108.701H25.8159Z" fill="#90C5C8"/>
<path d="M18.8013 101.716C18.8013 102.939 19.0433 104.15 19.5133 105.28C19.9833 106.41 20.6722 107.437 21.5407 108.302C22.4092 109.167 23.4402 109.853 24.575 110.321C25.7097 110.789 26.9259 111.03 28.1541 111.03C29.3824 111.03 30.5986 110.789 31.7333 110.321C32.868 109.853 33.8991 109.167 34.7676 108.302C35.636 107.437 36.325 106.41 36.795 105.28C37.265 104.15 37.5069 102.939 37.5069 101.716C37.5069 99.246 36.5215 96.8771 34.7676 95.1305C33.0136 93.3838 30.6346 92.4026 28.1541 92.4026C25.6736 92.4026 23.2947 93.3838 21.5407 95.1305C19.7867 96.8771 18.8013 99.246 18.8013 101.716Z" fill="#2D6F73"/>
</svg>
