<svg width="45" height="125" viewBox="0 0 45 125" fill="none" xmlns="http://www.w3.org/2000/svg">
<path d="M24.75 112.723C24.975 110.491 27 108.705 29.25 108.705C31.275 108.705 33.075 110.045 33.525 112.054L41.4 111.607C42.075 111.607 42.525 112.054 42.525 112.723C42.525 113.393 42.075 113.839 41.4 113.839L33.3 114.286C32.85 116.295 31.05 117.634 29.025 117.634C27.225 117.634 25.425 116.518 24.75 114.732L4.5 116.071C3.825 116.071 3.375 115.625 3.375 114.955C3.375 114.286 3.825 113.839 4.5 113.839L24.75 112.723ZM11.475 68.0804C11.925 66.0714 13.725 64.7321 15.75 64.7321C17.775 64.7321 19.575 66.0714 20.025 68.0804H40.5C41.175 68.0804 41.625 68.5268 41.625 69.1964C41.625 69.8661 41.175 70.3125 40.5 70.3125H20.025C19.575 72.3214 17.775 73.6607 15.75 73.6607C13.725 73.6607 11.925 72.3214 11.475 70.3125H5.625C4.95 70.3125 4.5 69.8661 4.5 69.1964C4.5 68.5268 4.95 68.0804 5.625 68.0804H11.475ZM27.225 60.2679C27.675 58.2589 29.475 56.9196 31.5 56.9196C33.3 56.9196 34.875 58.0357 35.55 59.5982L40.275 59.1518C40.95 59.1518 41.4 59.5982 41.4 60.2679C41.4 60.9375 40.95 61.3839 40.275 61.3839L36 61.8304C35.775 64.0625 33.975 65.8482 31.5 65.8482C29.475 65.8482 27.675 64.5089 27.225 62.5L3.6 64.7321C2.925 64.7321 2.475 64.2857 2.475 63.6161C2.475 62.9464 2.925 62.5 3.6 62.5L27.225 60.2679ZM13.725 9.82143C14.175 8.03571 15.975 6.69643 18 6.69643C20.25 6.69643 22.275 8.48214 22.5 10.7143L40.5 12.2768C41.175 12.2768 41.625 12.9464 41.625 13.3929C41.625 13.8393 40.95 14.5089 40.5 14.5089L22.275 12.9464C21.6 14.5089 20.025 15.625 18 15.625C15.75 15.625 13.95 14.0625 13.5 12.0536L3.375 11.1607C2.7 11.1607 2.25 10.4911 2.25 10.0446C2.25 9.375 2.925 8.92857 3.375 8.92857L13.725 9.82143ZM11.7 52.4554C11.025 52.6786 10.575 52.4554 10.35 51.7857C10.125 51.1161 10.35 50.6696 11.025 50.4464L33.525 42.6339C34.2 42.4107 34.65 42.6339 34.875 43.3036C35.1 43.9732 34.875 44.4196 34.2 44.6429L11.7 52.4554ZM11.925 22.3214C11.25 22.0982 11.025 21.4286 11.25 20.7589C11.475 20.0893 12.15 19.8661 12.825 20.0893L34.2 29.0179C34.875 29.2411 35.1 29.9107 34.875 30.5804C34.65 31.25 33.975 31.4732 33.3 31.25L11.925 22.3214ZM6.525 16.7411C5.85 16.5179 5.625 16.0714 5.625 15.4018C5.85 14.7321 6.3 14.5089 6.975 14.5089L38.475 21.2054C39.15 21.4286 39.375 21.875 39.375 22.5446C39.15 23.2143 38.7 23.4375 38.025 23.4375L6.525 16.7411ZM2.25 5.58036C1.575 5.58036 1.125 5.13393 1.125 4.46429C1.125 3.79464 1.575 3.34821 2.25 3.34821H42.75C43.425 3.34821 43.875 3.79464 43.875 4.46429C43.875 5.13393 43.425 5.58036 42.75 5.58036H2.25ZM35.325 97.0982L13.95 106.027C13.275 106.25 12.825 106.027 12.375 105.357C12.15 104.688 12.375 104.241 13.05 103.795L34.425 94.8661C35.1 94.6429 35.55 94.8661 36 95.5357C36.225 96.2054 35.775 96.875 35.325 97.0982ZM7.65 109.375L38.025 102.679C38.7 102.455 39.15 102.902 39.375 103.571C39.6 104.241 39.15 104.688 38.475 104.911L8.1 111.607C7.425 111.83 6.975 111.384 6.75 110.714C6.75 110.045 6.975 109.598 7.65 109.375ZM2.25 121.652C1.575 121.652 1.125 121.205 1.125 120.536C1.125 119.866 1.575 119.42 2.25 119.42H42.75C43.425 119.42 43.875 119.866 43.875 120.536C43.875 121.205 43.425 121.652 42.75 121.652H2.25ZM5.85 59.1518C5.175 59.375 4.725 58.9286 4.5 58.2589C4.275 57.5893 4.725 57.1429 5.4 56.9196L38.025 50.2232C38.7 50 39.15 50.4464 39.375 51.1161C39.6 51.7857 39.15 52.2321 38.475 52.4554L5.85 59.1518ZM8.775 75.8929C8.1 75.8929 7.65 75.2232 7.875 74.5536C8.1 73.8839 8.55 73.4375 9.225 73.6607L38.475 77.0089C39.15 77.0089 39.6 77.6786 39.375 78.3482C39.375 79.0179 38.7 79.4643 38.025 79.2411L8.775 75.8929ZM17.55 81.4732C16.875 81.25 16.65 80.5804 16.875 80.1339C17.1 79.6875 17.775 79.2411 18.225 79.4643L33.975 85.0446C34.65 85.2679 34.875 85.9375 34.65 86.3839C34.425 86.8304 33.75 87.2768 33.3 87.0536L17.55 81.4732Z" fill="#2D6F73"/>
<path d="M28.35 33.7054C36.45 24.5536 40.5 14.9554 40.5 2.23214C40.5 0.892857 41.4 0 42.75 0C44.1 0 45 0.892857 45 2.23214C45 16.2946 40.275 27.0089 31.275 37.0536C40.05 46.875 43.875 54.6875 43.875 64.7321C43.875 74.3304 40.275 81.9196 32.625 90.625C40.725 99.3304 45 109.375 45 122.768C45 124.107 44.1 125 42.75 125C41.4 125 40.5 124.107 40.5 122.768C40.5 110.714 36.9 101.786 29.475 93.75C27.675 95.5357 25.65 97.5446 23.4 99.5536C22.725 100.223 16.2 106.027 14.4 107.589C11.25 110.491 9.225 112.723 7.65 114.955C5.4 117.857 4.5 120.313 4.5 122.768C4.5 124.107 3.6 125 2.25 125C0.9 125 0 124.107 0 122.768C0 119.196 1.35 115.848 4.05 112.277C5.85 109.821 8.1 107.366 11.475 104.464C13.275 102.902 19.8 96.875 20.475 96.4286C22.725 94.4196 24.525 92.6339 26.325 90.8482C24.75 89.2857 22.95 87.9464 21.15 86.3839C19.35 85.0446 8.55 77.4554 6.075 75.2232C2.025 71.875 0 68.5268 0 64.7321C0 62.0536 1.125 59.375 3.15 56.9196C4.95 54.6875 7.2 52.4554 11.025 49.3304C11.925 48.4375 15.525 45.7589 15.975 45.3125C18 43.75 19.575 42.4107 21.15 41.0714C22.725 39.7321 24.075 38.3929 25.425 37.0536L20.475 32.1429C20.25 31.9196 15.75 27.4554 14.4 26.3393C12.15 24.1071 10.35 22.3214 8.775 20.5357C2.925 13.8393 0 8.25893 0 2.23214C0 0.892857 0.9 0 2.25 0C3.6 0 4.5 0.892857 4.5 2.23214C4.5 6.91964 6.975 11.6071 12.15 17.4107C13.725 19.1964 15.3 20.7589 17.55 22.9911C18.9 24.3304 23.175 28.5714 23.625 28.7946C25.2 30.5804 26.775 32.1429 28.35 33.7054ZM29.25 87.5C36 79.6875 39.375 72.9911 39.375 64.7321C39.375 56.25 36 49.1071 28.35 40.4018C27 41.7411 25.65 43.0804 24.075 44.4196C25.65 43.0804 9.225 56.6964 6.75 59.5982C5.175 61.3839 4.5 63.1696 4.5 64.7321C4.5 66.9643 5.85 69.1964 9 71.875C11.25 73.8839 21.825 81.25 23.85 82.8125C25.875 84.375 27.675 85.7143 29.25 87.5Z" fill="#90C5C8"/>
</svg>
