<svg width="111" height="125" viewBox="0 0 111 125" fill="none" xmlns="http://www.w3.org/2000/svg">
<path d="M55.2634 125C42.3325 125 32.9688 97.0982 32.9688 62.5C32.9688 27.9018 42.3325 0 55.2634 0C68.1943 0 77.558 27.9018 77.558 62.5C77.558 97.0982 68.1943 125 55.2634 125ZM55.2634 120.536C64.4042 120.536 73.0991 94.6429 73.0991 62.5C73.0991 30.3571 64.4042 4.46429 55.2634 4.46429C46.1226 4.46429 37.4277 30.3571 37.4277 62.5C37.4277 94.6429 46.1226 120.536 55.2634 120.536Z" fill="#90C5C8"/>
<path d="M1.31038 93.75C-5.37801 82.5893 14.2413 60.4911 44.1161 43.0804C73.9909 25.6696 102.751 20.0893 109.216 31.25C115.682 42.4107 96.2855 64.5089 66.4107 81.9196C36.5359 99.3304 7.77583 104.911 1.31038 93.75ZM5.10047 91.5179C9.78235 99.5536 36.5359 93.9732 64.1813 77.9018C91.8266 61.8304 110.108 41.5179 105.426 33.4821C100.744 25.4464 73.9909 31.0268 46.3456 47.0982C18.7002 63.1696 0.418598 83.4821 5.10047 91.5179Z" fill="#90C5C8"/>
<path d="M109.216 93.75C102.751 104.911 73.768 99.1071 44.1161 81.9196C14.4642 64.7321 -5.37801 42.4107 1.31038 31.25C7.99878 20.0893 36.7589 25.8929 66.4107 43.0804C96.0626 60.2679 115.905 82.5893 109.216 93.75ZM105.426 91.5179C110.108 83.4821 91.8266 63.1696 64.1813 47.0982C36.5359 31.0268 9.5594 25.4464 5.10047 33.4821C0.641545 41.5179 18.7002 61.8304 46.3455 77.9018C73.9909 93.9732 100.967 99.5536 105.426 91.5179Z" fill="#90C5C8"/>
<path d="M55.2634 73.6607C49.0209 73.6607 44.1161 68.75 44.1161 62.5C44.1161 56.25 49.0209 51.3393 55.2634 51.3393C61.5059 51.3393 66.4107 56.25 66.4107 62.5C66.4107 68.75 61.5059 73.6607 55.2634 73.6607ZM21.8214 34.5982C18.0314 34.5982 15.1331 31.6964 15.1331 27.9018C15.1331 24.1071 18.0314 21.2054 21.8214 21.2054C25.6115 21.2054 28.5098 24.1071 28.5098 27.9018C28.5098 31.6964 25.6115 34.5982 21.8214 34.5982ZM41.8866 113.839C38.0965 113.839 35.1982 110.938 35.1982 107.143C35.1982 103.348 38.0965 100.446 41.8866 100.446C45.6767 100.446 48.575 103.348 48.575 107.143C48.575 110.938 45.6767 113.839 41.8866 113.839ZM104.312 53.5714C100.522 53.5714 97.6232 50.6696 97.6232 46.875C97.6232 43.0804 100.522 40.1786 104.312 40.1786C108.102 40.1786 111 43.0804 111 46.875C111 50.6696 108.102 53.5714 104.312 53.5714Z" fill="#2D6F73"/>
</svg>
